# xmcd
#
# Track frame offsets: 
#        150
#        15962
#        28750
#        42642
#        55997
#        68897
#        85120
#        97782
#        116287
#        128480
#        146497
#        162067
#
# Disc length: 2309 seconds
#
# Revision: 1
# Processed by: cddbd v1.5.2PL0 Copyright (c) Steve Scherf et al.
# Submitted via: ExactAudioCopy v1.0b1
#
DISCID=8d09030c
DTITLE=Allen Toussaint - Life, Love And Faith
DYEAR=1972
DGENRE=Soul
TTITLE0=Victims Of The Darkness
TTITLE1=Am I Expecting Too Much
TTITLE2=My Baby Is the Real Thing
TTITLE3=Goin' Down
TTITLE4=She Once Belonged To Me
TTITLE5=Out Of The City (Into Country Life)
TTITLE6=Soul Sister
TTITLE7=Fingers And Toes
TTITLE8=I've Got To Convince Myself
TTITLE9=On Your Way Down
TTITLE10=Gone Too Far
TTITLE11=Electricity
EXTD=YEAR: 1972
EXTT0=
EXTT1=
EXTT2=
EXTT3=
EXTT4=
EXTT5=
EXTT6=
EXTT7=
EXTT8=
EXTT9=
EXTT10=
EXTT11=
PLAYORDER=
